# xmcd
#
# Track frame offsets:
#	150
#	10025
#	24948
#	40735
#	52808
#	66141
#	76843
#	90431
#	106992
#	118170
#	127936
#	140095
#	152535
#	163477
#	175489
#	186680
#	199585
#	221421
#
# Disc length: 3162 seconds
#
# Revision: 1
# Processed by: cddbd v1.5.2PL0 Copyright (c) Steve Scherf et al.
# Submitted via: audiograbber 1.80
#
DISCID=ee0c5812
DTITLE=Estudio Miami Ritmo - Instrumental Hits CD2
DYEAR=1900
DGENRE=
TTITLE0=Wipe Out
TTITLE1=Swinging Safari
TTITLE2=Oxygene IV:Synth
TTITLE3=Tea For Two
TTITLE4=Wunderland bei Nacht
TTITLE5=Wheels
TTITLE6=Axel F
TTITLE7=La Paloma
TTITLE8=Quatermaster´ Store
TTITLE9=Spanish Flea
TTITLE10=Can Can From Orpheus
TTITLE11=Telstar
TTITLE12=The Lonely Bull
TTITLE13=Chattanooga Choo Choo
TTITLE14=Alley Cat
TTITLE15=Cherry Pink
TTITLE16=Conquest Of Paradise
TTITLE17=Amazing Grace
EXTD=
EXTT0=
EXTT1=
EXTT2=
EXTT3=
EXTT4=
EXTT5=
EXTT6=
EXTT7=
EXTT8=
EXTT9=
EXTT10=
EXTT11=
EXTT12=
EXTT13=
EXTT14=
EXTT15=
EXTT16=
EXTT17=
PLAYORDER=
